<svg style="transform: rotate(90deg);" viewBox="0 0 1024 1024" version="1.1" xmlns="http://www.w3.org/2000/svg" p-id="5055" xmlns:xlink="http://www.w3.org/1999/xlink" ><path d="M112 319a8 8 0 0 1 8-8h784a8 8 0 0 1 8 8v64a8 8 0 0 1-8 8H120a8 8 0 0 1-8-8v-64zM288 527a8 8 0 0 1 8-8h433a8 8 0 0 1 8 8v64a8 8 0 0 1-8 8H296a8 8 0 0 1-8-8v-64z" fill="#707070" p-id="5056"></path><path d="M480 120a8 8 0 0 1 8-8h48a8 8 0 0 1 8 8v784a8 8 0 0 1-8 8h-48a8 8 0 0 1-8-8V120z" fill="currentColor" p-id="5057"></path></svg>