<svg  viewBox="0 0 1024 1024"  xmlns="http://www.w3.org/2000/svg" p-id="8002" xmlns:xlink="http://www.w3.org/1999/xlink" ><path d="M814.805 128a51.179 51.179 0 0 1 51.179 51.179V844.01a51.179 51.179 0 0 1-51.179 51.157H201.173a51.179 51.179 0 0 1-51.178-51.157V179.179A51.179 51.179 0 0 1 201.173 128h613.654zM329.024 434.837a51.093 51.093 0 0 1-51.179-51.093V179.157h-76.672v664.854h613.76V179.179H738.22v204.48a51.179 51.179 0 0 1-51.179 51.178H329.024z m0-51.093h357.995V179.157H329.024v204.587z m357.91 204.501a25.557 25.557 0 1 1 0.085 51.072H329.024a25.536 25.536 0 1 1 0-51.072h357.91z" fill="currentColor" p-id="8003"></path></svg>