<svg viewBox="0 0 1024 1024"  xmlns="http://www.w3.org/2000/svg"  xmlns:xlink="http://www.w3.org/1999/xlink" ><path d="M717 256q52.5 0 99.5 20.5 46.5 20 81.5 55 34.5 34.5 55 81 20 46.5 20 99.5t-20 99.5q-20.5 46.5-55 81.5-35 34.5-81.5 55-47 20-99.5 20H307q-52.5 0-99-20-47-20.5-81.5-55-35-35-55-81.5-20.5-46.5-20.5-99.5t20.5-99.5q20-46.5 55-81 34.5-35 81.5-55 46.5-20.5 99-20.5m410 461q42 0 79.5-16 37-16.5 65-44 27.5-28 44-65 16-37.5 16-80t-16-79.5q-16.5-37.5-44-65-28-28-65-44-37.5-16.5-79.5-16.5H307q-42 0-79 16.5-37.5 16-65 44-28 27.5-44 65-16.5 37-16.5 79.5t16.5 80q16 37 44 65 27.5 27.5 65 44 37 16 79 16z" fill="currentColor" p-id="5170"></path><path d="M307 742.5q-47.5 0-89.5-18-42-18.5-73-49.5-31.5-31.5-49.5-73.5t-18-89.5q0-47.5 18-89.5t49.5-73q31-31.5 73-49.5 42-18.5 89.5-18.5h410q47.5 0 89.5 18.5 42 18 73.5 49.5 31 31 49 73t18 89.5q0 47.5-18 89.5t-49 73.5q-31.5 31-73.5 49.5-42 18-89.5 18z" fill="#FAFAFA" p-id="5171"></path><path d="M717 256q52.5 0 99.5 20.5 46.5 20 81.5 55 34.5 34.5 55 81 20 46.5 20 99.5t-20 99.5q-20.5 46.5-55 81.5-35 34.5-81.5 55-47 20-99.5 20H307q-52.5 0-99-20-47-20.5-81.5-55-35-35-55-81.5-20.5-46.5-20.5-99.5t20.5-99.5q20-46.5 55-81 34.5-35 81.5-55 46.5-20.5 99-20.5m410 461q42 0 79.5-16 37-16.5 65-44 27.5-28 44-65 16-37.5 16-80t-16-79.5q-16.5-37.5-44-65-28-28-65-44-37.5-16.5-79.5-16.5H307q-42 0-79 16.5-37.5 16-65 44-28 27.5-44 65-16.5 37-16.5 79.5t16.5 80q16 37 44 65 27.5 27.5 65 44 37 16 79 16z" fill="currentColor" p-id="5172"></path></svg>