<svg viewBox="0 0 1024 1024"  xmlns="http://www.w3.org/2000/svg"  xmlns:xlink="http://www.w3.org/1999/xlink" ><path d="M598.646154 401.723077H279.630769c-15.753846 0-27.569231 11.815385-27.569231 31.507692 0 15.753846 11.815385 27.569231 31.507693 27.569231h319.015384c15.753846 0 27.569231-11.815385 27.569231-31.507692 0-15.753846-15.753846-27.569231-31.507692-27.569231z" fill="currentColor" p-id="967"></path><path d="M921.6 850.707692l-204.8-196.923077c47.261538-59.076923 78.769231-137.846154 78.769231-220.553846 0-196.923077-157.538462-354.461538-354.461539-354.461538s-354.461538 157.538462-354.461538 354.461538 157.538462 354.461538 354.461538 354.461539c90.584615 0 173.292308-35.446154 236.307693-90.584616l204.8 196.923077c3.938462 3.938462 11.815385 7.876923 19.692307 7.876923s15.753846-3.938462 19.692308-7.876923c11.815385-15.753846 11.815385-35.446154 0-43.323077z m-484.430769-126.030769c-161.476923 0-295.384615-133.907692-295.384616-295.384615S275.692308 133.907692 437.169231 133.907692s295.384615 133.907692 295.384615 295.384616-129.969231 295.384615-295.384615 295.384615z" fill="currentColor"></path></svg>