<?xml version="1.0" standalone="no"?><!DOCTYPE svg PUBLIC "-//W3C//DTD SVG 1.1//EN" "http://www.w3.org/Graphics/SVG/1.1/DTD/svg11.dtd"><svg t="1719237209396" class="icon" viewBox="0 0 1024 1024" version="1.1" xmlns="http://www.w3.org/2000/svg" p-id="16061" xmlns:xlink="http://www.w3.org/1999/xlink" width="16" height="16"><path d="M793.6 993.28c-9.216 0-18.432-3.584-25.6-10.24l-173.568-174.08c-13.824-13.824-13.824-36.864 0-50.688s36.864-13.824 50.688 0l148.48 148.48 148.48-148.48c13.824-13.824 36.864-13.824 50.688 0s13.824 36.864 0 50.688L819.2 983.04c-7.168 6.656-16.384 10.24-25.6 10.24zM250.88 450.56c-9.216 0-18.432-3.584-25.088-10.752L51.712 266.24c-13.824-13.824-13.824-36.864 0-50.688l174.08-173.568c13.824-13.824 36.864-13.824 50.688 0s13.824 36.864 0 50.688l-148.48 148.48 148.48 148.48c13.824 13.824 13.824 36.864 0 50.688-7.168 6.656-16.384 10.24-25.6 10.24z" fill="#333333" p-id="16062"></path><path d="M793.6 993.28c-19.968 0-35.84-15.872-35.84-35.84v-153.6c0-290.816-236.544-527.36-527.36-527.36H76.8c-19.968 0-35.84-15.872-35.84-35.84s15.872-35.84 35.84-35.84h153.6c330.24 0 599.04 268.8 599.04 599.04v153.6c0 19.968-15.872 35.84-35.84 35.84z" fill="#333333" p-id="16063"></path></svg>